<svg width="981" height="1470" viewBox="0 0 981 1470" fill="none" xmlns="http://www.w3.org/2000/svg">
<path d="M41.5799 79C112.5 140 -172.5 392.5 311.5 459C435 498 340.5 576 514 543C579.5 530.542 551 622.5 605 635.5C727 640 957 569.5 936 635.5" stroke="white" stroke-width="2" stroke-dasharray="10 10"/>
<path d="M73.9724 22.5931C75.2844 25.573 76.2017 28.7525 76.6613 32.071L75.6708 32.2082C75.8879 33.7754 76 35.3748 76 37C76 38.6252 75.8879 40.2246 75.6708 41.7918L76.6613 41.929C76.2017 45.2475 75.2844 48.427 73.9724 51.4069L73.0571 51.0039C71.7614 53.9469 70.069 56.6912 68.0433 59.1748L68.8182 59.8069C66.7445 62.3494 64.3321 64.6244 61.6461 66.5693L61.0597 65.7594C58.487 67.6222 55.6563 69.1746 52.6279 70.3579L52.9919 71.2893C49.977 72.4673 46.7717 73.2888 43.4327 73.6992L43.3107 72.7066C41.736 72.9002 40.1304 73 38.5 73C36.8696 73 35.264 72.9002 33.6893 72.7066L33.5673 73.6992C30.2283 73.2888 27.023 72.4673 24.0081 71.2893L24.3721 70.3579C21.3436 69.1746 18.5129 67.6222 15.9403 65.7594L15.3538 66.5693C12.6679 64.6244 10.2554 62.3494 8.18175 59.8069L8.95668 59.1748C6.93098 56.6912 5.23858 53.9469 3.94284 51.0039L3.02762 51.4069C1.71561 48.427 0.798285 45.2475 0.33863 41.929L1.32917 41.7918C1.11209 40.2246 0.999985 38.6252 0.999985 37C0.999985 35.3748 1.11209 33.7754 1.32917 32.2082L0.33863 32.071C0.798283 28.7525 1.71561 25.573 3.02762 22.5931L3.94283 22.9961C5.23857 20.0531 6.93098 17.3088 8.95668 14.8252L8.18175 14.1931C10.2554 11.6506 12.6679 9.37558 15.3538 7.43067L15.9403 8.24062C18.5129 6.37775 21.3436 4.82544 24.3721 3.64213L24.0081 2.71071C27.023 1.53269 30.2283 0.711241 33.5673 0.300845L33.6893 1.29338C35.264 1.09983 36.8696 1 38.5 1C40.1304 1 41.736 1.09983 43.3107 1.29338L43.4327 0.300846C46.7717 0.711242 49.977 1.53269 52.9919 2.71071L52.6279 3.64214C55.6563 4.82544 58.487 6.37775 61.0596 8.24061L61.6461 7.43066C64.3321 9.37557 66.7445 11.6506 68.8182 14.1931L68.0433 14.8252C70.069 17.3088 71.7614 20.0531 73.0571 22.9961L73.9724 22.5931Z" stroke="white" stroke-width="2" stroke-dasharray="10 10"/>
<path d="M977.972 661.593C979.284 664.573 980.202 667.752 980.661 671.071L979.671 671.208C979.888 672.775 980 674.375 980 676C980 677.625 979.888 679.225 979.671 680.792L980.661 680.929C980.202 684.248 979.284 687.427 977.972 690.407L977.057 690.004C975.761 692.947 974.069 695.691 972.043 698.175L972.818 698.807C970.745 701.349 968.332 703.624 965.646 705.569L965.06 704.759C962.487 706.622 959.656 708.175 956.628 709.358L956.992 710.289C953.977 711.467 950.772 712.289 947.433 712.699L947.311 711.707C945.736 711.9 944.13 712 942.5 712C940.87 712 939.264 711.9 937.689 711.707L937.567 712.699C934.228 712.289 931.023 711.467 928.008 710.289L928.372 709.358C925.344 708.175 922.513 706.622 919.94 704.759L919.354 705.569C916.668 703.624 914.255 701.349 912.182 698.807L912.957 698.175C910.931 695.691 909.239 692.947 907.943 690.004L907.028 690.407C905.716 687.427 904.798 684.248 904.339 680.929L905.329 680.792C905.112 679.225 905 677.625 905 676C905 674.375 905.112 672.775 905.329 671.208L904.339 671.071C904.798 667.752 905.716 664.573 907.028 661.593L907.943 661.996C909.239 659.053 910.931 656.309 912.957 653.825L912.182 653.193C914.255 650.651 916.668 648.376 919.354 646.431L919.94 647.241C922.513 645.378 925.344 643.825 928.372 642.642L928.008 641.711C931.023 640.533 934.228 639.711 937.567 639.301L937.689 640.293C939.264 640.1 940.87 640 942.5 640C944.13 640 945.736 640.1 947.311 640.293L947.433 639.301C950.772 639.711 953.977 640.533 956.992 641.711L956.628 642.642C959.656 643.825 962.487 645.378 965.06 647.241L965.646 646.431C968.332 648.376 970.745 650.651 972.818 653.193L972.043 653.825C974.069 656.309 975.761 659.053 977.057 661.996L977.972 661.593Z" stroke="white" stroke-width="2" stroke-dasharray="10 10"/>
<path d="M873 1028.5C907.5 1260 527.5 1188 534.5 1304" stroke="white" stroke-width="2" stroke-dasharray="10 10"/>
<path d="M535 1378C535 1423.32 535 1458.22 535 1470" stroke="white" stroke-width="2" stroke-dasharray="10 10"/>
<path d="M569.972 1326.59C571.284 1329.57 572.202 1332.75 572.661 1336.07L571.671 1336.21C571.888 1337.78 572 1339.37 572 1341C572 1342.63 571.888 1344.22 571.671 1345.79L572.661 1345.93C572.202 1349.25 571.284 1352.43 569.972 1355.41L569.057 1355C567.761 1357.95 566.069 1360.69 564.043 1363.17L564.818 1363.81C562.744 1366.35 560.332 1368.62 557.646 1370.57L557.06 1369.76C554.487 1371.62 551.656 1373.17 548.628 1374.36L548.992 1375.29C545.977 1376.47 542.772 1377.29 539.433 1377.7L539.311 1376.71C537.736 1376.9 536.13 1377 534.5 1377C532.869 1377 531.264 1376.9 529.689 1376.71L529.567 1377.7C526.228 1377.29 523.023 1376.47 520.008 1375.29L520.372 1374.36C517.344 1373.17 514.513 1371.62 511.94 1369.76L511.354 1370.57C508.668 1368.62 506.255 1366.35 504.182 1363.81L504.957 1363.17C502.931 1360.69 501.238 1357.95 499.943 1355L499.028 1355.41C497.716 1352.43 496.798 1349.25 496.339 1345.93L497.329 1345.79C497.112 1344.22 497 1342.63 497 1341C497 1339.37 497.112 1337.78 497.329 1336.21L496.339 1336.07C496.798 1332.75 497.716 1329.57 499.028 1326.59L499.943 1327C501.238 1324.05 502.931 1321.31 504.957 1318.83L504.182 1318.19C506.255 1315.65 508.668 1313.38 511.354 1311.43L511.94 1312.24C514.513 1310.38 517.344 1308.83 520.372 1307.64L520.008 1306.71C523.023 1305.53 526.228 1304.71 529.567 1304.3L529.689 1305.29C531.264 1305.1 532.869 1305 534.5 1305C536.13 1305 537.736 1305.1 539.311 1305.29L539.433 1304.3C542.772 1304.71 545.977 1305.53 548.992 1306.71L548.628 1307.64C551.656 1308.83 554.487 1310.38 557.06 1312.24L557.646 1311.43C560.332 1313.38 562.744 1315.65 564.818 1318.19L564.043 1318.83C566.069 1321.31 567.761 1324.05 569.057 1327L569.972 1326.59Z" stroke="white" stroke-width="2" stroke-dasharray="10 10"/>
</svg>
